M48
; DRILL file KiCad 10.0.0 date 2026-04-17T16:47:14
; FORMAT={-:-/ absolute / metric / decimal}
; #@! TF.CreationDate,2026-04-17T16:47:14+02:00
; #@! TF.GenerationSoftware,Kicad,Pcbnew,10.0.0
; #@! TF.FileFunction,Plated,1,4,PTH
FMAT,2
METRIC
; #@! TA.AperFunction,Plated,PTH,ViaDrill
T1C0.200
; #@! TA.AperFunction,Plated,PTH,ViaDrill
T2C0.300
; #@! TA.AperFunction,Plated,PTH,ViaDrill
T3C0.350
; #@! TA.AperFunction,Plated,PTH,ViaDrill
T4C0.400
; #@! TA.AperFunction,Plated,PTH,ViaDrill
T5C0.635
; #@! TA.AperFunction,Plated,PTH,ComponentDrill
T6C0.800
; #@! TA.AperFunction,Plated,PTH,ComponentDrill
T7C0.900
; #@! TA.AperFunction,Plated,PTH,ComponentDrill
T8C0.920
; #@! TA.AperFunction,Plated,PTH,ComponentDrill
T9C1.000
; #@! TA.AperFunction,Plated,PTH,ComponentDrill
T10C1.020
; #@! TA.AperFunction,Plated,PTH,ComponentDrill
T11C1.500
; #@! TA.AperFunction,Plated,PTH,ComponentDrill
T12C1.600
; #@! TA.AperFunction,Plated,PTH,ComponentDrill
T13C1.700
; #@! TA.AperFunction,Plated,PTH,ComponentDrill
T14C2.300
%
G90
G05
T1
X72.47Y-87.5
X73.62Y-94.52
X77.053Y-81.823
X77.203Y-75.573
X77.41Y-72.943
X77.41Y-73.604
X77.41Y-74.264
X77.803Y-76.173
X78.103Y-77.423
X78.103Y-79.623
X78.299Y-74.162
X79.053Y-81.523
X79.33Y-94.55
X79.559Y-89.031
X79.653Y-67.823
X80.203Y-64.723
X80.203Y-83.073
X80.303Y-77.923
X83.803Y-81.123
X84.0Y-98.25
X84.227Y-79.196
X85.0Y-97.25
X86.5Y-116.806
X86.877Y-117.25
X87.9Y-87.0
X88.0Y-117.5
X89.09Y-117.91
X90.262Y-89.443
X90.445Y-118.555
X90.55Y-100.73
X91.0Y-118.932
X91.101Y-100.741
X91.651Y-89.033
X91.75Y-93.0
X91.75Y-95.5
X91.75Y-98.25
X91.75Y-119.5
X92.45Y-86.95
X93.032Y-89.424
X93.25Y-93.0
X93.25Y-98.25
X93.282Y-95.504
X93.831Y-101.5
X94.285Y-100.889
X94.285Y-109.14
X94.75Y-93.0
X94.75Y-95.5
X94.75Y-98.25
X96.0Y-93.0
X96.0Y-95.5
X96.48Y-90.221
X97.032Y-90.221
X98.692Y-94.754
X98.712Y-98.754
X99.151Y-95.254
X99.25Y-99.262
X100.0Y-87.757
X100.0Y-108.5
X100.35Y-116.0
X100.96Y-111.25
X104.343Y-88.138
X107.626Y-74.229
X107.636Y-74.874
X109.5Y-119.31
X109.986Y-118.932
X110.5Y-118.555
X112.868Y-77.388
X113.008Y-76.436
X113.75Y-84.25
X114.0Y-85.75
X114.0Y-86.594
X114.163Y-75.956
X114.163Y-76.855
X115.953Y-81.373
X116.503Y-81.923
X120.717Y-110.797
X120.717Y-111.349
X120.717Y-111.997
X120.717Y-112.549
X124.841Y-120.088
X124.85Y-120.673
X124.865Y-121.261
X124.87Y-121.874
X125.153Y-78.073
X142.25Y-110.75
X142.25Y-124.75
X142.25Y-134.75
X142.25Y-136.0
X163.245Y-104.148
X163.256Y-104.738
X164.0Y-104.0
X164.682Y-104.007
X167.5Y-103.5
X168.25Y-103.25
X185.993Y-92.057
X186.02Y-97.759
X186.02Y-101.499
X188.08Y-95.359
X188.1Y-133.4
X188.25Y-97.75
X188.25Y-99.25
X188.848Y-98.5
X189.3Y-134.15
X189.474Y-136.696
X189.5Y-97.75
X189.5Y-99.25
X189.9Y-135.6
X190.104Y-90.764
X190.949Y-130.296
X190.955Y-136.7
X191.213Y-133.09
X191.35Y-129.917
X191.67Y-100.139
X191.862Y-134.872
X192.12Y-98.259
X193.135Y-132.7
X193.25Y-138.25
X193.803Y-134.537
X193.85Y-127.35
X194.05Y-129.889
X194.05Y-130.8
X194.063Y-135.024
X194.25Y-124.6
X194.545Y-131.805
X195.45Y-130.1
X195.55Y-132.0
X195.6Y-124.3
X195.65Y-135.024
X196.186Y-135.582
X196.278Y-127.35
X196.5Y-97.5
X196.615Y-130.05
X196.615Y-131.0
X196.615Y-131.95
X197.052Y-124.3
X197.75Y-138.75
X198.45Y-129.9
X198.45Y-132.35
X198.489Y-131.089
X200.176Y-133.75
X202.521Y-101.593
X217.759Y-94.892
X219.0Y-132.3
T2
X87.884Y-96.754
X87.935Y-95.758
X87.96Y-94.254
X87.96Y-94.856
X102.921Y-87.274
X191.0Y-134.75
X191.7Y-97.739
X199.53Y-138.5
X200.15Y-135.032
X200.85Y-126.05
X203.27Y-137.18
T3
X71.0Y-116.0
X71.12Y-114.32
X71.13Y-112.71
X71.25Y-110.75
X73.103Y-70.173
X73.103Y-71.173
X73.603Y-52.523
X73.603Y-53.523
X73.603Y-54.523
X74.053Y-77.473
X74.103Y-70.173
X74.103Y-71.173
X74.803Y-63.423
X75.103Y-70.173
X75.103Y-71.173
X75.153Y-68.323
X78.174Y-67.073
X78.403Y-51.723
X79.403Y-51.723
X80.053Y-72.273
X80.403Y-51.723
X80.853Y-68.873
X80.99Y-114.55
X80.994Y-115.902
X81.0Y-110.75
X81.0Y-112.94
X82.004Y-51.723
X82.004Y-53.773
X82.853Y-79.823
X83.004Y-51.723
X83.004Y-53.773
X83.803Y-59.473
X83.803Y-60.473
X84.004Y-51.723
X84.004Y-53.773
X84.803Y-59.473
X84.803Y-60.473
X84.903Y-84.473
X85.803Y-59.473
X85.803Y-60.473
X86.703Y-59.473
X86.703Y-60.473
X87.703Y-59.473
X87.703Y-60.473
X87.703Y-61.423
X87.703Y-62.423
X87.703Y-63.423
X88.703Y-60.473
X88.703Y-61.423
X88.703Y-62.423
X88.703Y-63.423
X90.25Y-51.5
X91.038Y-89.92
X91.5Y-51.5
X92.75Y-51.5
X93.504Y-77.723
X93.504Y-78.723
X93.504Y-79.723
X94.504Y-77.723
X94.504Y-78.723
X94.504Y-79.723
X94.75Y-51.5
X96.0Y-51.5
X96.0Y-52.5
X97.25Y-51.5
X97.25Y-52.5
X97.25Y-53.75
X102.36Y-125.73
X102.583Y-127.314
X102.803Y-62.973
X102.803Y-63.973
X103.753Y-62.973
X103.753Y-63.973
X103.853Y-51.873
X103.853Y-52.873
X103.853Y-53.873
X103.853Y-54.873
X104.153Y-77.873
X104.153Y-78.873
X104.153Y-79.723
X104.153Y-80.723
X104.153Y-82.373
X104.153Y-83.373
X104.75Y-141.5
X104.75Y-143.75
X104.753Y-62.973
X104.753Y-63.973
X104.853Y-51.873
X104.853Y-52.873
X104.853Y-53.873
X104.853Y-54.873
X104.87Y-125.74
X104.9Y-127.314
X105.153Y-77.873
X105.153Y-78.873
X105.153Y-79.723
X105.153Y-80.723
X105.153Y-82.373
X105.153Y-83.373
X105.753Y-62.973
X105.753Y-63.973
X105.853Y-51.873
X105.853Y-52.873
X105.853Y-53.873
X105.853Y-54.873
X106.153Y-77.873
X106.153Y-78.873
X106.153Y-79.723
X106.153Y-80.723
X106.153Y-82.373
X106.153Y-83.373
X106.203Y-55.923
X106.703Y-62.973
X106.703Y-63.973
X106.703Y-64.973
X106.703Y-65.973
X106.803Y-51.873
X106.803Y-52.873
X106.803Y-53.873
X106.803Y-54.873
X106.803Y-61.323
X106.996Y-85.473
X107.25Y-141.5
X107.5Y-144.25
X107.603Y-61.323
X107.64Y-125.73
X107.703Y-62.973
X107.703Y-63.973
X107.703Y-64.973
X107.703Y-65.973
X107.75Y-127.314
X107.8Y-87.4
X107.803Y-51.873
X107.803Y-52.873
X107.803Y-53.873
X107.803Y-54.873
X108.003Y-59.623
X108.003Y-60.423
X108.403Y-61.323
X108.703Y-62.973
X108.703Y-63.973
X108.703Y-64.973
X108.703Y-65.973
X108.803Y-51.873
X108.803Y-52.873
X108.803Y-53.873
X108.803Y-54.873
X109.203Y-61.323
X113.25Y-123.0
X115.703Y-74.223
X115.703Y-75.223
X115.703Y-76.223
X116.703Y-74.223
X116.703Y-75.223
X116.703Y-76.223
X119.153Y-67.873
X120.153Y-67.873
X122.103Y-67.873
X122.103Y-68.873
X122.303Y-74.723
X122.303Y-79.323
X122.303Y-80.323
X122.303Y-81.323
X122.303Y-89.023
X122.303Y-90.023
X122.303Y-91.023
X122.303Y-96.673
X122.303Y-97.673
X122.303Y-98.673
X122.303Y-105.473
X122.303Y-106.473
X122.303Y-107.473
X122.303Y-116.373
X122.303Y-117.373
X122.303Y-118.373
X122.303Y-125.373
X122.303Y-126.373
X122.303Y-127.373
X122.303Y-134.323
X122.303Y-135.323
X122.303Y-136.323
X123.103Y-67.873
X123.103Y-68.873
X123.303Y-79.323
X123.303Y-80.323
X123.303Y-81.323
X123.303Y-89.023
X123.303Y-90.023
X123.303Y-91.023
X123.303Y-96.673
X123.303Y-97.673
X123.303Y-98.673
X123.303Y-105.473
X123.303Y-106.473
X123.303Y-107.473
X123.303Y-116.373
X123.303Y-117.373
X123.303Y-118.373
X123.303Y-125.373
X123.303Y-126.373
X123.303Y-127.373
X123.303Y-134.323
X123.303Y-135.323
X123.303Y-136.323
X126.003Y-70.173
X126.003Y-71.173
X127.003Y-70.173
X127.003Y-71.173
X128.004Y-70.173
X128.004Y-71.173
X128.203Y-137.873
X128.203Y-138.873
X129.203Y-137.873
X129.203Y-138.873
X130.203Y-137.873
X130.203Y-138.873
X133.504Y-67.873
X133.504Y-68.873
X134.504Y-67.873
X134.504Y-68.873
X135.504Y-67.873
X135.504Y-68.873
X139.25Y-120.75
X142.75Y-122.25
X145.25Y-101.5
X168.0Y-119.25
X181.0Y-123.9
X181.0Y-133.0
X186.097Y-120.75
X186.1Y-132.6
X188.75Y-123.9
X190.0Y-122.275
X193.3Y-136.7
X196.15Y-119.25
X196.65Y-134.75
X197.0Y-135.487
X198.35Y-123.9
X200.6Y-124.05
X202.252Y-83.498
X216.32Y-118.8
T4
X79.403Y-52.723
X80.103Y-58.023
X81.103Y-58.023
X81.603Y-56.323
X81.603Y-57.223
X82.103Y-58.023
X83.103Y-58.023
X87.443Y-68.6
X89.187Y-80.873
X89.68Y-75.378
X91.253Y-70.53
X91.253Y-81.935
X91.5Y-55.25
X93.5Y-52.25
X93.754Y-81.923
X94.555Y-70.022
X95.75Y-55.312
X96.942Y-73.883
X97.095Y-77.871
X97.103Y-80.823
X97.298Y-81.96
X98.034Y-67.812
X101.406Y-56.856
X107.686Y-71.064
X116.349Y-72.971
X128.383Y-73.871
T5
X212.25Y-57.25
X212.75Y-61.25
X213.755Y-58.416
X215.6Y-58.44
X217.25Y-57.25
X217.5Y-60.25
X219.5Y-58.5
X221.25Y-58.5
T6
X107.803Y-80.373
X107.803Y-82.913
X110.303Y-80.373
X110.303Y-82.913
T7
X207.61Y-125.805
X207.61Y-128.345
X207.61Y-130.885
X207.61Y-133.425
X207.61Y-135.965
X210.15Y-124.535
X210.15Y-127.075
X210.15Y-129.615
X210.15Y-132.155
X210.15Y-134.695
T8
X213.51Y-80.43
X213.51Y-82.93
X213.51Y-84.93
X213.51Y-87.43
X213.61Y-101.9
X213.61Y-104.4
X213.61Y-106.4
X213.61Y-108.9
T9
X68.975Y-122.625
X68.975Y-125.165
X68.975Y-127.705
X68.975Y-130.245
X68.975Y-132.785
X68.975Y-135.325
X68.975Y-137.865
X68.975Y-140.405
X72.7Y-122.525
X74.25Y-138.475
X75.24Y-122.525
X76.79Y-138.475
X77.78Y-122.525
X79.33Y-138.475
X80.32Y-122.525
X81.87Y-138.475
X82.86Y-122.525
X84.41Y-138.475
X85.4Y-122.525
X86.95Y-138.475
X87.725Y-109.14
X87.725Y-111.68
X87.725Y-114.22
X87.94Y-122.525
X89.49Y-138.475
X90.265Y-109.14
X90.265Y-111.68
X90.265Y-114.22
X90.48Y-122.525
X92.03Y-138.475
X93.02Y-122.525
X94.57Y-138.475
X95.015Y-111.575
X95.015Y-114.115
X95.56Y-122.525
X97.11Y-138.475
X97.555Y-111.575
X97.555Y-114.115
X98.1Y-122.525
X99.65Y-138.475
X100.64Y-122.525
X102.19Y-138.475
X103.09Y-111.235
X103.09Y-113.775
X103.18Y-122.525
X104.73Y-138.475
X105.63Y-111.235
X105.63Y-113.775
X105.72Y-122.525
X107.27Y-138.475
X108.17Y-111.235
X108.17Y-113.775
X108.26Y-122.525
X110.8Y-122.525
X111.025Y-126.095
X111.025Y-128.635
X111.025Y-131.175
X111.025Y-133.715
X111.025Y-136.255
X111.025Y-138.795
X111.025Y-141.335
X111.025Y-143.875
X115.764Y-55.976
X115.764Y-58.516
X118.304Y-55.976
X118.304Y-58.516
X120.844Y-55.976
X120.844Y-58.516
X123.384Y-55.976
X123.384Y-58.516
X125.924Y-55.976
X125.924Y-58.516
X128.464Y-55.976
X128.464Y-58.516
X131.004Y-55.976
X131.004Y-58.516
X133.544Y-55.976
X133.544Y-58.516
T10
X220.56Y-123.61
X220.56Y-126.15
X220.56Y-134.35
X220.56Y-136.89
T11
X76.108Y-113.354
T12
X213.45Y-122.4
X213.45Y-138.1
T13
X73.568Y-110.814
X73.568Y-115.894
X78.648Y-110.814
X78.648Y-115.894
T14
X216.22Y-77.36
X216.22Y-90.5
X216.32Y-98.83
X216.32Y-111.97
M30
